<svg xmlns="http://www.w3.org/2000/svg" width="50" height="50" viewBox="0 0 50 50" fill="none">
<path d="M4.2442 27.8257L4.40657 27.5826L14.1942 12.9898C14.3371 12.7761 14.6735 12.7983 14.7817 13.0303C16.4168 16.5229 17.8278 20.8665 17.1667 23.5706C16.8845 24.6832 16.1115 26.19 15.2417 27.5826C15.1296 27.7853 15.0059 27.9842 14.8745 28.1758C14.8126 28.2642 14.7083 28.3158 14.5962 28.3158H4.53023C4.25967 28.3158 4.10122 28.0358 4.2442 27.8257Z" fill="white"/>
<path d="M48 30.845V33.2833C48 33.4233 47.9157 33.5478 47.7931 33.6022C47.0417 33.9289 44.4695 35.1267 43.4 36.6355C40.6707 40.4894 38.5853 46 33.924 46H14.4775C7.58517 46 2 40.3145 2 33.2989V33.0733C2 32.8866 2.14949 32.735 2.33356 32.735H13.1742C13.3888 32.735 13.546 32.9372 13.5269 33.1511C13.4502 33.8667 13.5805 34.5978 13.914 35.2628C14.558 36.5889 15.892 37.4172 17.3334 37.4172H22.7V33.1667H17.3947C17.1225 33.1667 16.9615 32.8478 17.1187 32.6222C17.1762 32.5328 17.2414 32.4394 17.3103 32.3344C17.8125 31.6111 18.5293 30.4872 19.2424 29.2077C19.7292 28.3445 20.2007 27.4227 20.5802 26.4972C20.6569 26.33 20.7182 26.1589 20.7795 25.9916C20.8831 25.6961 20.9903 25.42 21.067 25.1439C21.1436 24.9106 21.205 24.6656 21.2664 24.4361C21.4465 23.6506 21.5232 22.8183 21.5232 21.955C21.5232 21.6167 21.5079 21.2628 21.4772 20.9244C21.4619 20.555 21.4158 20.1855 21.3698 19.8161C21.3392 19.4894 21.2817 19.1667 21.2203 18.8284C21.1436 18.3344 21.0364 17.8445 20.9136 17.3506L20.8715 17.1639C20.7795 16.8256 20.7029 16.5028 20.5955 16.1645C20.2927 15.1028 19.9438 14.0683 19.5758 13.1C19.4417 12.715 19.2883 12.3456 19.135 11.9761C18.9088 11.42 18.6788 10.9145 18.4681 10.4361C18.3607 10.2183 18.2686 10.02 18.1767 9.81777C18.0732 9.58831 17.9658 9.35893 17.8586 9.14107C17.7819 8.97385 17.6936 8.81832 17.6324 8.6628L16.9769 7.43389C16.8848 7.26667 17.0382 7.06832 17.2183 7.11888L21.32 8.24668H21.3315C21.3392 8.24668 21.3431 8.25055 21.3469 8.25055L21.8874 8.40221L22.4815 8.5733L22.7 8.63554V6.16225C22.7 4.96833 23.6431 4 24.8084 4C25.391 4 25.92 4.24107 26.2995 4.63389C26.679 5.0267 26.9167 5.56335 26.9167 6.16225V9.83333L27.3536 9.95774C27.3882 9.96943 27.4227 9.98499 27.4534 10.0083C27.5607 10.09 27.714 10.2106 27.9095 10.3583C28.0629 10.4828 28.2277 10.6344 28.427 10.79C28.8219 11.1128 29.2933 11.5289 29.8108 12.0072C29.9488 12.1278 30.0831 12.2522 30.2057 12.3767C30.8727 13.0066 31.6202 13.7456 32.3332 14.5622C32.5325 14.7916 32.7281 15.025 32.9274 15.27C33.1267 15.5189 33.3375 15.7639 33.5215 16.0089C33.7631 16.3355 34.0236 16.6739 34.2498 17.0278C34.3572 17.195 34.4798 17.3661 34.5834 17.5333C34.8747 17.9806 35.1315 18.4434 35.3769 18.9061C35.4803 19.12 35.5877 19.3533 35.6797 19.5828C35.9519 20.2011 36.1665 20.8311 36.3045 21.4611C36.3467 21.5972 36.3774 21.745 36.3927 21.8773V21.9083C36.4386 22.095 36.454 22.2934 36.4693 22.4956C36.5307 23.1411 36.5 23.7867 36.362 24.4361C36.3045 24.7122 36.2279 24.9727 36.1358 25.2489C36.0438 25.5134 35.9519 25.7894 35.8331 26.05C35.6031 26.5905 35.3308 27.1311 35.0088 27.6367C34.9053 27.8233 34.7827 28.0216 34.66 28.2083C34.5258 28.4066 34.3879 28.5934 34.2652 28.7761C34.0965 29.0095 33.9164 29.2544 33.7324 29.4722C33.5675 29.7017 33.3988 29.9311 33.2148 30.1333C32.958 30.4405 32.7127 30.7322 32.4558 31.0122C32.3025 31.195 32.1377 31.3817 31.969 31.5489C31.8042 31.7355 31.6355 31.9028 31.4822 32.0583C31.2253 32.3189 31.0107 32.5211 30.8305 32.6883L30.4088 33.0811C30.3475 33.1355 30.267 33.1667 30.1827 33.1667H26.9167V37.4172H31.026C31.946 37.4172 32.82 37.0867 33.5253 36.48C33.7669 36.2661 34.821 35.3405 36.0669 33.9445C36.109 33.8978 36.1627 33.8628 36.224 33.8472L47.5745 30.5183C47.7853 30.4561 48 30.6194 48 30.845Z" fill="white"/>
</svg>